<?xml version="1.0" encoding="UTF-8"?><svg id="Layer_2" xmlns="http://www.w3.org/2000/svg" viewBox="0 0 500 500"><defs><style>.cls-1{fill:#ebedee;}.cls-2{fill:#fcb003;}.cls-3{fill:#c02b1f;}.cls-4{fill:none;}.cls-5{fill:#f56a53;}.cls-6{fill:#3c97fe;}.cls-7{fill:#459efe;}.cls-8{fill:#fed159;}.cls-9{fill:#343433;}.cls-10{fill:#e23425;}.cls-11{fill:#f2b28f;}.cls-12{fill:#f56951;}.cls-13{fill:#61b5fe;}.cls-14{fill:#3b9a01;}.cls-15{fill:#6cbdfe;}.cls-16{fill:#f44f33;}.cls-17{fill:#e03324;}</style></defs><g id="Layer_2-2"><rect class="cls-4" x="0" width="500" height="500"/><g id="Layer_1-2"><path class="cls-1" d="M411.18,208.07l.8.8v252.17l-5.27,10.38c-5.86,7.49-12.92,10.67-22.4,11.33H26.07c-8.84-.7-15.7-4.05-21.26-10.89L0,464.24v-255.38c21.57-.21,43.17.26,64.74.06,1.5,0,2.58-.86,2.72-.86h.8c114.28-.99,228.64.74,342.91,0h0ZM18.48,379.93h255.38l-.8-154.2H16.86l.4,153.44,1.22.76h0ZM394.3,226.54l-85.93-.8v67.78c-.1.87,1.03.4,1.6.47h84.32v-67.46h0ZM392.7,310.86h-84.32v68.58c-.09.87,1.03.4,1.62.47h84.32v-68.58l-1.62-.47ZM19.68,405.63c-3.7,1.27-2.41,8.04,0,8.04h252.17c2.62,0,2.62-8.04,0-8.04H19.68ZM19.68,431.32c-3.7,1.27-2.41,8.04,0,8.04h252.17c2.62,0,2.62-8.04,0-8.04H19.68Z"/><path class="cls-9" d="M411.18,191.2H0v-65.85c4.71-11.49,12.33-19.09,25.27-20.11l362.12.13c12.89,1.48,22.7,11.37,23.82,24.36,1.62,18.72-.03,42.2-.03,61.46h0ZM49.62,131.15c-22.6,2.49-18.75,37.37,4.53,34.28,20.94-2.79,17.7-36.71-4.53-34.28ZM101.01,131.15c-22.6,2.49-18.75,37.37,4.53,34.28,20.94-2.79,17.7-36.71-4.53-34.28ZM152.4,131.15c-22.6,2.49-18.75,37.37,4.53,34.28,20.94-2.79,17.7-36.71-4.53-34.28Z"/><path class="cls-16" d="M68.27,191.2v16.86H0v-16.86h68.27Z"/><path class="cls-11" d="M67.46,208.07c-.14,0-1.22.85-2.72.86-21.57.2-43.17-.27-64.74-.06v-.8h67.46Z"/><path class="cls-10" d="M273.04,225.73l-104.41,64.24c-14.42-9.11-29.98-19.71-44.73-27.95-.74-.42-3.75-2.32-4.25-1.76.06,19.52-.09,39.09,0,58.63l-101.17,61.03-1.22-.76-.4-153.44h256.18,0Z"/><path class="cls-3" d="M273.04,225.73l.8,154.2H18.48l101.18-61.03c.04,8.55-.03,17.15,0,25.7l2.98-.63,65.27-40.34c.29-1.22-.17-1.29-.85-1.95-3.12-3.11-13.97-8.87-18.42-11.69l104.41-64.24h-.01Z"/><path class="cls-8" d="M411.18,191.2v16.86c-114.28.74-228.64-.99-342.91,0v-16.86h342.91Z"/><polygon class="cls-16" points="392.7 310.86 394.32 311.33 394.32 379.93 309.98 379.93 392.7 310.86"/><path class="cls-5" d="M392.7,310.86l-82.72,69.07c-.59-.07-1.72.4-1.62-.47v-68.58h84.34Z"/><polygon class="cls-16" points="394.3 226.54 394.32 294 309.98 294 394.3 226.54"/><path class="cls-12" d="M394.3,226.54l-84.32,67.46c-.59-.07-1.72.4-1.62-.47v-67.78l85.94.8h0Z"/><path class="cls-17" d="M49.62,131.15c22.23-2.45,25.47,31.48,4.53,34.28-23.28,3.11-27.13-31.78-4.53-34.28Z"/><path class="cls-2" d="M101.01,131.15c22.23-2.45,25.47,31.48,4.53,34.28-23.28,3.11-27.13-31.78-4.53-34.28Z"/><path class="cls-14" d="M152.4,131.15c22.23-2.45,25.47,31.48,4.53,34.28-23.28,3.11-27.13-31.78-4.53-34.28Z"/><path class="cls-1" d="M168.65,289.98c4.47,2.82,15.3,8.58,18.42,11.69.67.66,1.13.74.85,1.95l-65.27,40.34-2.98.63c-.03-8.55.03-17.15,0-25.7-.09-19.52.06-39.09,0-58.63.5-.56,3.5,1.35,4.25,1.76,14.75,8.24,30.31,18.82,44.73,27.95h0Z"/><path class="cls-6" d="M496.55,81.29c21.14,75.03-58.97,138.63-127.31,100.55l10.86-10.86,7.59,2.89c.23-.24-.86-2.75-1.09-3.25l9.78-8.85,2.15-.56c1.69,4.53,6.29,13.72,10.6,15.99,1.89.99,2.88,1.39,4.91.44,6.82-3.21,13.41-21.07,14.81-28.23.14-.74,0-.37-.49-.47-2.44-.54-4.63-.26-7.05-.37-.14-1.12.76-1.69,1.45-2.35,6.46-6.26,14.15-12.85,20.97-18.81,1.07-.93,2.62-2.54,3.98-2.71-.26,3.61-.44,7.25-.73,10.86l28.89,5.03c4.25-8.74,7.69-18.03,8.57-27.82-.27-.37-.7-.33-1.1-.37-8.21-.89-20.17-.04-28.78.01l15.2-14.83h14.83c-.37-2.05-.69-4.11-1.09-6.14,4.17-2.28,7.38-7,11.19-9.61.64-.44.99-.67,1.83-.52l.03-.03h0ZM465.81,153.64l-22.04-3.24c-1.6,8.14-4.43,16.01-7.98,23.49,6.49-1.99,12.82-5.41,18.35-9.32,3.37-2.38,8.67-6.63,11.13-9.84.27-.36.7-.46.54-1.09h0Z"/><path class="cls-7" d="M475.58,44.77c10.08,10.6,16.97,22.35,20.98,36.53-.83-.16-1.19.09-1.83.52-3.81,2.61-7.03,7.32-11.19,9.61-1.55-7.89-4.33-14.95-7.96-22.06-9.47,2.61-19.19,4.17-28.92,5.43l2.18,22.79h20.98l-15.2,14.83h-6.14c0,3.8-.06,7.62-.34,11.43-.03.47-.37.82-.37.87-1.36.17-2.91,1.78-3.98,2.71-6.83,5.96-14.52,12.55-20.97,18.81-.69.67-1.59,1.25-1.45,2.35-8.84-.42-17.59-.43-26.4.36,1.17,4.07,2.13,8.32,3.62,12.29l-2.15.56-9.78,8.85c-2.79-6.5-5.41-13.03-6.83-20.04-.27-.4-1.58-.24-2.05-.23-5.6.29-13.56,2.06-19.18,3.27-.5.11-1.05-.32-.89.54,6.53,6.88,14.14,12.25,22.42,16.83l-10.86,10.86c-10.06-5.6-16.37-10.89-23.88-19.54,1.09-1.33,2.35-2.64,3.61-3.8,7.25-6.7,15.7-13.15,22.62-20.05.74-.74,1.53-1.4,1.62-2.54,1.22-.17,2.68.07,3.82-.7.44-.62-.11-1.55-.21-2.19.66-.04,1.12-.34,1.63-.72,3.12-2.38,6.32-6.09,9.41-8.67.73-.6,1.69-1.5,2.71-1.46.24,3.45.46,7.63,1.09,11.03.07.42.11.73.59.86l11.14-.69c9.5-.06,18.92.01,28.36.69,1.33-7.12,1.93-14.4,1.86-21.66-9.53.03-19.05-.03-28.58,0,.07-.62.3-1.16.72-1.63,3.07-3.44,8.39-7.22,11.95-10.47.69-.63,1.66-1.38,1.8-2.35h14.11c0-5.04-.14-10.18-.73-15.2.85-.14,1.53-.73,2.18-1.26,8.34-6.99,15.93-15.03,24.41-21.89l.9-1.8c1.8-.34,3.58-.95,5.43-1.09.1-.1-1.35-2.42-1.45-2.54l11.22-9.41v-.03h-.01Z"/><path class="cls-15" d="M441.95,22.71l-20.25,18.45c-1.42-2.54-4.84-7.03-7.46-8.28-5.49-2.61-10.04,4.9-12.26,9-1.23,2.29-8.15,18.79-7.05,19.9.96.01,1.93-.03,2.89,0-1.63,2.65-4.53,4.93-6.86,7.06-4.05,3.68-8.61,8.02-12.83,11.4-.54.43-.82.85-1.65.7.2-1.85.16-3.77.69-5.57l-.56-.52-28.65-5.07c-4.14,8.82-8.18,18.23-8.38,28.16h20.98c-.07.87-.85,1.45-1.45,1.99-3.68,3.35-8.91,7.12-12.13,10.64-.49.53-.82,1.1-.89,1.82h-6.52c-.24,1.15.26,2.23.36,3.25-.7-.04-1.22.19-1.79.56-2.54,1.66-5.59,5.11-7.96,7.22-1.02.9-2.39,2.15-3.62,2.71-16.67-68.35,49.22-127.42,115.38-103.45v.03h.01ZM388.05,36.44c-8.81,2.85-17.69,8.06-24.59,14.28-1.35,1.22-3.82,3.52-4.88,4.88-.27.36-.7.46-.54,1.09l22.04,3.24c1.48-8.18,4.45-16,7.98-23.49Z"/><path class="cls-13" d="M475.58,44.77l-11.22,9.41s-.63-.07-.9-.34c-7.59-7.81-17.02-13.79-27.32-17.37,1.35,4.1,3.42,7.92,4.8,12.02,1.25,3.71,2.01,7.71,3.21,11.44.76.49,14.21-1.73,16.23-2.12l-.9,1.8c-8.48,6.86-16.07,14.88-24.41,21.89-.63.53-1.33,1.12-2.18,1.26-.23-1.95-.86-3.91-.77-5.92l-.86-.59-10.83.74c-8.88.82-18.46-.92-27.14-.77-.47,0-1.15-.06-1.46.37-.46.64-1.53,11.26-1.6,12.86-.14,2.82.1,5.67,0,8.49,9.75-.03,19.54.03,29.29,0-.14.99-1.12,1.72-1.8,2.35-3.55,3.27-8.88,7.05-11.95,10.47-.42.47-.64,1.02-.72,1.63-4.94.01-9.9,0-14.83,0-.17,3.28.13,6.52.36,9.77-1.02-.06-1.98.85-2.71,1.46-3.09,2.59-6.29,6.3-9.41,8.67-.5.39-.97.67-1.63.72-1.02-6.83-1.53-13.72-1.8-20.61-9.64.04-19.29-.06-28.93,0,.07-.73.4-1.3.89-1.82,3.24-3.52,8.45-7.29,12.13-10.64.6-.54,1.36-1.12,1.45-1.99h14.47c.03-5.72.82-11.36,1.45-17,.83.14,1.1-.27,1.65-.7,4.23-3.38,8.78-7.72,12.83-11.4,2.35-2.13,5.23-4.41,6.86-7.06,10.4.24,20.76.6,31.11-.36.82-.7-6.17-18.35-7.23-20.25l20.25-18.45c13.77,5,23.55,11.46,33.63,22.06h0Z"/><path class="cls-13" d="M339.95,115.66c.79,7.56,3.41,15.8,6.92,22.56.52,1,.92,2.49,2.25,2.39,7.91-2.18,15.99-3.57,24.11-4.7-.09,1.13-.87,1.8-1.62,2.54-6.92,6.9-15.37,13.35-22.62,20.05-1.26,1.17-2.52,2.46-3.61,3.8-9.41-10.86-15.37-22.07-18.81-36.17,1.23-.56,2.61-1.8,3.62-2.71,2.38-2.11,5.44-5.56,7.96-7.22.57-.37,1.09-.6,1.79-.56h0Z"/></g></g></svg>