<?xml version="1.0" encoding="UTF-8"?><svg id="Layer_2" xmlns="http://www.w3.org/2000/svg" viewBox="0 0 349.07 325"><defs><style>.cls-1{fill:#ebedee;}.cls-2{fill:#fcb003;}.cls-3{fill:#c02b1f;}.cls-4{fill:#f56a53;}.cls-5{fill:#3c97fe;}.cls-6{fill:#459efe;}.cls-7{fill:#fed159;}.cls-8{fill:#343433;}.cls-9{fill:#e23425;}.cls-10{fill:#f2b28f;}.cls-11{fill:#f56951;}.cls-12{fill:#61b5fe;}.cls-13{fill:#3b9a01;}.cls-14{fill:#6cbdfe;}.cls-15{fill:#f44f33;}.cls-16{fill:#e03324;}</style></defs><g id="Layer_1-2"><path class="cls-1" d="M287.06,133.23l.56.56v176.05l-3.68,7.25c-4.09,5.23-9.02,7.45-15.64,7.91H18.2c-6.17-.49-10.96-2.83-14.84-7.6L0,312.07v-178.29c15.06-.15,30.14.18,45.2.04,1.05,0,1.8-.6,1.9-.6h.56c79.78-.69,159.62.52,239.4,0h0ZM12.9,253.21h178.29l-.56-107.65H11.77l.28,107.12s.85.53.85.53ZM275.28,146.12l-59.99-.56v47.32c-.07.61.72.28,1.12.33h58.87v-47.1h0ZM274.16,204.99h-58.87v47.88c-.06.61.72.28,1.13.33h58.87v-47.88l-1.13-.33ZM13.74,271.15c-2.58.89-1.68,5.61,0,5.61h176.05c1.83,0,1.83-5.61,0-5.61H13.74ZM13.74,289.09c-2.58.89-1.68,5.61,0,5.61h176.05c1.83,0,1.83-5.61,0-5.61H13.74Z"/><path class="cls-8" d="M287.06,121.45H0v-45.97c3.29-8.02,8.61-13.33,17.64-14.04l252.81.09c9,1.03,15.85,7.94,16.63,17.01,1.13,13.07-.02,29.46-.02,42.91h0ZM34.64,79.53c-15.78,1.74-13.09,26.09,3.16,23.93,14.62-1.95,12.36-25.63-3.16-23.93ZM70.52,79.53c-15.78,1.74-13.09,26.09,3.16,23.93,14.62-1.95,12.36-25.63-3.16-23.93ZM106.4,79.53c-15.78,1.74-13.09,26.09,3.16,23.93,14.62-1.95,12.36-25.63-3.16-23.93Z"/><path class="cls-15" d="M47.66,121.45v11.77H0v-11.77s47.66,0,47.66,0Z"/><path class="cls-10" d="M47.1,133.23c-.1,0-.85.59-1.9.6-15.06.14-30.14-.19-45.2-.04v-.56h47.1Z"/><path class="cls-9" d="M190.62,145.56l-72.89,44.85c-10.07-6.36-20.93-13.76-31.23-19.51-.52-.29-2.62-1.62-2.97-1.23.04,13.63-.06,27.29,0,40.93L12.9,253.21l-.85-.53-.28-107.12h178.85,0Z"/><path class="cls-3" d="M190.62,145.56l.56,107.65H12.9l70.64-42.61c.03,5.97-.02,11.97,0,17.94l2.08-.44,45.57-28.16c.2-.85-.12-.9-.59-1.36-2.18-2.17-9.75-6.19-12.86-8.16l72.89-44.85h-.01Z"/><path class="cls-7" d="M287.06,121.45v11.77c-79.78.52-159.62-.69-239.4,0v-11.77s239.4,0,239.4,0Z"/><polygon class="cls-15" points="274.16 204.99 275.29 205.32 275.29 253.21 216.41 253.21 274.16 204.99"/><path class="cls-4" d="M274.16,204.99l-57.75,48.22c-.41-.05-1.2.28-1.13-.33v-47.88h58.88Z"/><polygon class="cls-15" points="275.28 146.12 275.29 193.22 216.41 193.22 275.28 146.12"/><path class="cls-11" d="M275.28,146.12l-58.87,47.1c-.41-.05-1.2.28-1.13-.33v-47.32l60,.56h0Z"/><path class="cls-16" d="M34.64,79.53c15.52-1.71,17.78,21.98,3.16,23.93-16.25,2.17-18.94-22.19-3.16-23.93Z"/><path class="cls-2" d="M70.52,79.53c15.52-1.71,17.78,21.98,3.16,23.93-16.25,2.17-18.94-22.19-3.16-23.93Z"/><path class="cls-13" d="M106.4,79.53c15.52-1.71,17.78,21.98,3.16,23.93-16.25,2.17-18.94-22.19-3.16-23.93Z"/><path class="cls-1" d="M117.74,190.41c3.12,1.97,10.68,5.99,12.86,8.16.47.46.79.52.59,1.36l-45.57,28.16-2.08.44c-.02-5.97.02-11.97,0-17.94-.06-13.63.04-27.29,0-40.93.35-.39,2.44.94,2.97,1.23,10.3,5.75,21.16,13.14,31.23,19.51h0Z"/><path class="cls-5" d="M346.66,44.72c14.76,52.38-41.17,96.78-88.88,70.2l7.58-7.58,5.3,2.02c.16-.17-.6-1.92-.76-2.27l6.83-6.18,1.5-.39c1.18,3.16,4.39,9.58,7.4,11.16,1.32.69,2.01.97,3.43.31,4.76-2.24,9.36-14.71,10.34-19.71.1-.52,0-.26-.34-.33-1.7-.38-3.23-.18-4.92-.26-.1-.78.53-1.18,1.01-1.64,4.51-4.37,9.88-8.97,14.64-13.13.75-.65,1.83-1.77,2.78-1.89-.18,2.52-.31,5.06-.51,7.58l20.17,3.51c2.97-6.1,5.37-12.59,5.98-19.42-.19-.26-.49-.23-.77-.26-5.73-.62-14.08-.03-20.09.01l10.61-10.35h10.35c-.26-1.43-.48-2.87-.76-4.29,2.91-1.59,5.15-4.89,7.81-6.71.45-.31.69-.47,1.28-.36l.02-.02ZM325.2,95.23l-15.39-2.26c-1.12,5.68-3.09,11.18-5.57,16.4,4.53-1.39,8.95-3.78,12.81-6.51,2.35-1.66,6.05-4.63,7.77-6.87.19-.25.49-.32.38-.76h0Z"/><path class="cls-6" d="M332.02,19.22c7.04,7.4,11.85,15.6,14.65,25.5-.58-.11-.83.06-1.28.36-2.66,1.82-4.91,5.11-7.81,6.71-1.08-5.51-3.02-10.44-5.56-15.4-6.61,1.82-13.4,2.91-20.19,3.79l1.52,15.91c4.88,0,9.77,0,14.65,0l-10.61,10.35h-4.29c0,2.65-.04,5.32-.24,7.98-.02.33-.26.57-.26.61-.95.12-2.03,1.24-2.78,1.89-4.77,4.16-10.14,8.76-14.64,13.13-.48.47-1.11.87-1.01,1.64-6.17-.29-12.28-.3-18.43.25.82,2.84,1.49,5.81,2.53,8.58l-1.5.39-6.83,6.18c-1.95-4.54-3.78-9.1-4.77-13.99-.19-.28-1.1-.17-1.43-.16-3.91.2-9.47,1.44-13.39,2.28-.35.08-.73-.22-.62.38,4.56,4.8,9.87,8.55,15.65,11.75l-7.58,7.58c-7.02-3.91-11.43-7.6-16.67-13.64.76-.93,1.64-1.84,2.52-2.65,5.06-4.68,10.96-9.18,15.79-14,.52-.52,1.07-.98,1.13-1.77.85-.12,1.87.05,2.67-.49.31-.43-.08-1.08-.15-1.53.46-.03.78-.24,1.14-.5,2.18-1.66,4.41-4.25,6.57-6.05.51-.42,1.18-1.05,1.89-1.02.17,2.41.32,5.33.76,7.7.05.29.08.51.41.6l7.78-.48c6.63-.04,13.21.01,19.8.48.93-4.97,1.35-10.05,1.3-15.12-6.65.02-13.3-.02-19.95,0,.05-.43.21-.81.5-1.14,2.14-2.4,5.86-5.04,8.34-7.31.48-.44,1.16-.96,1.26-1.64,3.28,0,6.57,0,9.85,0,0-3.52-.1-7.11-.51-10.61.59-.1,1.07-.51,1.52-.88,5.82-4.88,11.12-10.49,17.04-15.28l.63-1.26c1.26-.24,2.5-.66,3.79-.76.07-.07-.94-1.69-1.01-1.77l7.83-6.57v-.02Z"/><path class="cls-14" d="M308.54,3.82l-14.14,12.88c-.99-1.77-3.38-4.91-5.21-5.78-3.83-1.82-7.01,3.42-8.56,6.28-.86,1.6-5.69,13.12-4.92,13.89.67.01,1.35-.02,2.02,0-1.14,1.85-3.16,3.44-4.79,4.93-2.83,2.57-6.01,5.6-8.96,7.96-.38.3-.57.59-1.15.49.14-1.29.11-2.63.48-3.89l-.39-.36-20-3.54c-2.89,6.16-5.71,12.73-5.85,19.66,4.88,0,9.77,0,14.65,0-.05.61-.59,1.01-1.01,1.39-2.57,2.34-6.22,4.97-8.47,7.43-.34.37-.57.77-.62,1.27h-4.55c-.17.8.18,1.56.25,2.27-.49-.03-.85.13-1.25.39-1.77,1.16-3.9,3.57-5.56,5.04-.71.63-1.67,1.5-2.53,1.89-11.64-47.72,34.36-88.96,80.55-72.22v.02ZM270.91,13.41c-6.15,1.99-12.35,5.63-17.17,9.97-.94.85-2.67,2.46-3.41,3.41-.19.25-.49.32-.38.76l15.39,2.26c1.03-5.71,3.11-11.17,5.57-16.4Z"/><path class="cls-12" d="M332.02,19.22l-7.83,6.57s-.44-.05-.63-.24c-5.3-5.45-11.88-9.63-19.07-12.13.94,2.86,2.39,5.53,3.35,8.39.87,2.59,1.4,5.38,2.24,7.99.53.34,9.92-1.21,11.33-1.48l-.63,1.26c-5.92,4.79-11.22,10.39-17.04,15.28-.44.37-.93.78-1.52.88-.16-1.36-.6-2.73-.54-4.13l-.6-.41-7.56.52c-6.2.57-12.89-.64-18.95-.54-.33,0-.8-.04-1.02.26-.32.45-1.07,7.86-1.12,8.98-.1,1.97.07,3.96,0,5.93,6.81-.02,13.64.02,20.45,0-.1.69-.78,1.2-1.26,1.64-2.48,2.28-6.2,4.92-8.34,7.31-.29.33-.45.71-.5,1.14-3.45.01-6.91,0-10.35,0-.12,2.29.09,4.55.25,6.82-.71-.04-1.38.59-1.89,1.02-2.16,1.81-4.39,4.4-6.57,6.05-.35.27-.68.47-1.14.5-.71-4.77-1.07-9.58-1.26-14.39-6.73.03-13.47-.04-20.2,0,.05-.51.28-.91.62-1.27,2.26-2.46,5.9-5.09,8.47-7.43.42-.38.95-.78,1.01-1.39,3.36,0,6.74,0,10.1,0,.02-3.99.57-7.93,1.01-11.87.58.1.77-.19,1.15-.49,2.95-2.36,6.13-5.39,8.96-7.96,1.64-1.49,3.65-3.08,4.79-4.93,7.26.17,14.49.42,21.72-.25.57-.49-4.31-12.81-5.05-14.14l14.14-12.88c9.61,3.49,16.44,8,23.48,15.4h0Z"/><path class="cls-12" d="M237.33,68.71c.55,5.28,2.38,11.03,4.83,15.75.36.7.64,1.74,1.57,1.67,5.52-1.52,11.16-2.49,16.83-3.28-.06.79-.61,1.26-1.13,1.77-4.83,4.82-10.73,9.32-15.79,14-.88.82-1.76,1.72-2.52,2.65-6.57-7.58-10.73-15.41-13.13-25.25.86-.39,1.82-1.26,2.53-1.89,1.66-1.47,3.8-3.88,5.56-5.04.4-.26.76-.42,1.25-.39h0Z"/></g></svg>